# xmcd
#
# Track frame offsets:
#	150
#	19002
#	34322
#	51787
#	61686
#	74508
#	91214
#	102689
#	124703
#	142570
#	159739
#
# Disc length: 2322 seconds
#
# Revision: 1
# Processed by: cddbd v1.5.2PL0 Copyright (c) Steve Scherf et al.
# Submitted via: audiograbber 1.83.01
#
DISCID=9009100b
DTITLE=Micky - Når Byens Neonlys De Slukkes
DYEAR=2007
DGENRE=Country
TTITLE0=Når byens neonlys de slukkes (2007)
TTITLE1=Jeg er stadig kun en lille bitte lort (2007)
TTITLE2=Det er det (2007)
TTITLE3=Computersangen (2007)
TTITLE4=Kom nu her min gamle tøs (2007)
TTITLE5=Nu bli'r det morgen (2007)
TTITLE6=Hvem ved måske (2007)
TTITLE7=Aalborghymnen (2007)
TTITLE8=Hold om mig kære du (2007)
TTITLE9=Ballerup station (2007)
TTITLE10=Sorry mister (2007)
EXTD=
EXTT0=
EXTT1=
EXTT2=
EXTT3=
EXTT4=
EXTT5=
EXTT6=
EXTT7=
EXTT8=
EXTT9=
EXTT10=
PLAYORDER=
